<svg width="294" height="283" viewBox="0 0 294 283" fill="none" xmlns="http://www.w3.org/2000/svg">
<g filter="url(#filter0_i_1_23)">
<path d="M239.265 45.5206C252.083 40.196 266.601 45.5765 274.222 57.1769L276.84 61.1616C285.406 74.2006 283.907 91.8435 271.227 100.934C240.107 123.245 207.923 127.883 171.5 135.5L160.5 113.5C185.305 76.8186 208.076 58.4767 239.265 45.5206Z" fill="white"/>
</g>
<path d="M273.804 57.4514L276.422 61.4361C284.872 74.2991 283.353 91.625 270.936 100.527C243.202 120.411 214.632 126.21 182.826 132.667C179.186 133.406 175.504 134.153 171.775 134.932L161.078 113.538C185.773 77.0874 208.439 58.8674 239.457 45.9823C252.027 40.7609 266.299 46.0269 273.804 57.4514Z" stroke="#E1E1E1"/>
<g filter="url(#filter1_i_1_23)">
<path d="M271.433 135.404C284.146 139.477 290.648 152.937 288.59 166.127L287.769 171.389C285.326 187.049 271.956 199.31 256.338 196.617C224.803 191.18 201.721 174.51 166.744 156.922L165.244 141.422C208.098 130.78 238.603 124.886 271.433 135.404Z" fill="white"/>
</g>
<path d="M288.096 166.049L287.275 171.312C284.864 186.768 271.699 198.758 256.423 196.124C240.722 193.417 227.117 187.913 213.055 180.879C206.294 177.497 199.432 173.763 192.179 169.817L191.303 169.34C183.799 165.258 175.871 160.958 167.215 156.599L165.783 141.803C208.424 131.225 238.707 125.445 271.281 135.88C283.71 139.862 290.124 153.048 288.096 166.049Z" stroke="#E1E1E1"/>
<g filter="url(#filter2_i_1_23)">
<path d="M235.551 220.364C244.526 232.62 241.253 249.589 229.535 259.258V259.258C216.891 269.691 198.109 269.546 187.734 256.853C164.918 228.939 158.313 202.279 146.354 169.316L161.354 158.316C195.268 178.721 216.214 193.956 235.551 220.364Z" fill="white"/>
</g>
<path d="M188.121 256.537C169.182 233.366 161.455 211.083 152.487 185.22C150.722 180.129 148.908 174.9 146.952 169.498L161.381 158.916C195.109 179.224 215.924 194.406 235.148 220.659C243.945 232.673 240.76 249.348 229.217 258.872C216.745 269.163 198.288 268.975 188.121 256.537Z" stroke="#E1E1E1"/>
<g filter="url(#filter3_i_1_23)">
<path d="M134.515 256.897C129.142 271.371 112.45 277.364 97.9572 272.043V272.043C82.8848 266.51 73.3824 250.698 78.5578 235.499C88.7428 205.588 105.167 187.965 129.222 158.611L145.722 158.611C145.384 195.708 146.9 223.533 134.515 256.897Z" fill="white"/>
</g>
<path d="M79.0312 235.66C88.041 209.2 101.938 192.404 121.791 168.408C124.254 165.431 126.809 162.343 129.458 159.111L145.217 159.111C145.181 163.239 145.168 167.252 145.154 171.168C145.048 202.243 144.962 227.318 134.046 256.723C128.786 270.892 112.413 276.818 98.1295 271.574C83.2588 266.115 73.9604 250.552 79.0312 235.66Z" stroke="#E1E1E1"/>
<g filter="url(#filter4_i_1_23)">
<path d="M45.6484 210.736C31.038 215.249 16.2268 206.14 11.3802 191.637L10.082 187.752C5.49691 174.032 10.1868 158.51 22.9598 151.719C54.6847 134.85 79.7739 137.062 119.879 142.192L124.379 159.192C104.084 181.517 80.2122 200.059 45.6484 210.736Z" fill="white"/>
</g>
<path d="M11.8544 191.479L10.5562 187.594C6.03389 174.061 10.6756 158.817 23.1945 152.16C54.6801 135.419 79.5749 137.546 119.482 142.645L123.826 159.057C103.614 181.244 79.8549 199.646 45.5008 210.258C31.1911 214.678 16.6292 205.767 11.8544 191.479Z" stroke="#E1E1E1"/>
<g filter="url(#filter5_i_1_23)">
<path d="M30.6501 103.853C17.7136 95.0645 15.3014 77.3871 23.8301 64.2777L24.7836 62.8121C33.0682 50.0778 49.1959 44.2421 62.7289 51.1453C93.5158 66.8495 107.841 87.5382 129.5 120L120 138.5C83.3118 130.022 58.5312 122.795 30.6501 103.853Z" fill="white"/>
</g>
<path d="M24.2492 64.5504L25.2027 63.0847C33.3739 50.5248 49.2368 44.8243 62.5017 51.5907C93.083 67.19 107.351 87.7091 128.921 120.033L119.733 137.925C83.2678 129.488 58.6367 122.262 30.9311 103.44C18.2491 94.8238 15.8489 77.4625 24.2492 64.5504Z" stroke="#E1E1E1"/>
<g filter="url(#filter6_i_1_23)">
<path d="M110.96 24.3542C112.61 9.9948 125.682 0.202015 140.135 0.395155L142.874 0.431759C158.829 0.644981 172.73 12.2336 173.732 28.1587C175.703 59.4846 169.588 81.4198 156.704 117.476L132.204 117.477C116.118 81.0008 107.023 58.6171 110.96 24.3542Z" fill="white"/>
</g>
<path d="M140.128 0.895111L142.867 0.931715C158.598 1.14194 172.25 12.5613 173.233 28.1901C175.191 59.3152 169.149 81.133 156.351 116.976L132.53 116.977C116.526 80.6785 107.548 58.4343 111.457 24.4112C113.073 10.348 125.889 0.704815 140.128 0.895111Z" stroke="#E1E1E1"/>
<ellipse cx="143" cy="140" rx="32" ry="33" fill="url(#paint0_radial_1_23)"/>
<defs>
<filter id="filter0_i_1_23" x="160.5" y="43.4593" width="121.724" height="96.0407" filterUnits="userSpaceOnUse" color-interpolation-filters="sRGB">
<feFlood flood-opacity="0" result="BackgroundImageFix"/>
<feBlend mode="normal" in="SourceGraphic" in2="BackgroundImageFix" result="shape"/>
<feColorMatrix in="SourceAlpha" type="matrix" values="0 0 0 0 0 0 0 0 0 0 0 0 0 0 0 0 0 0 127 0" result="hardAlpha"/>
<feOffset dy="4"/>
<feGaussianBlur stdDeviation="5.5"/>
<feComposite in2="hardAlpha" operator="arithmetic" k2="-1" k3="1"/>
<feColorMatrix type="matrix" values="0 0 0 0 0.943904 0 0 0 0 0.645208 0 0 0 0 0.95 0 0 0 1 0"/>
<feBlend mode="normal" in2="shape" result="effect1_innerShadow_1_23"/>
</filter>
<filter id="filter1_i_1_23" x="165.244" y="129.878" width="123.721" height="71.111" filterUnits="userSpaceOnUse" color-interpolation-filters="sRGB">
<feFlood flood-opacity="0" result="BackgroundImageFix"/>
<feBlend mode="normal" in="SourceGraphic" in2="BackgroundImageFix" result="shape"/>
<feColorMatrix in="SourceAlpha" type="matrix" values="0 0 0 0 0 0 0 0 0 0 0 0 0 0 0 0 0 0 127 0" result="hardAlpha"/>
<feOffset dy="4"/>
<feGaussianBlur stdDeviation="5.5"/>
<feComposite in2="hardAlpha" operator="arithmetic" k2="-1" k3="1"/>
<feColorMatrix type="matrix" values="0 0 0 0 0.943904 0 0 0 0 0.645208 0 0 0 0 0.95 0 0 0 1 0"/>
<feBlend mode="normal" in2="shape" result="effect1_innerShadow_1_23"/>
</filter>
<filter id="filter2_i_1_23" x="146.354" y="158.316" width="94.3345" height="112.438" filterUnits="userSpaceOnUse" color-interpolation-filters="sRGB">
<feFlood flood-opacity="0" result="BackgroundImageFix"/>
<feBlend mode="normal" in="SourceGraphic" in2="BackgroundImageFix" result="shape"/>
<feColorMatrix in="SourceAlpha" type="matrix" values="0 0 0 0 0 0 0 0 0 0 0 0 0 0 0 0 0 0 127 0" result="hardAlpha"/>
<feOffset dy="4"/>
<feGaussianBlur stdDeviation="5.5"/>
<feComposite in2="hardAlpha" operator="arithmetic" k2="-1" k3="1"/>
<feColorMatrix type="matrix" values="0 0 0 0 0.943904 0 0 0 0 0.645208 0 0 0 0 0.95 0 0 0 1 0"/>
<feBlend mode="normal" in2="shape" result="effect1_innerShadow_1_23"/>
</filter>
<filter id="filter3_i_1_23" x="77.1347" y="158.611" width="68.587" height="119.347" filterUnits="userSpaceOnUse" color-interpolation-filters="sRGB">
<feFlood flood-opacity="0" result="BackgroundImageFix"/>
<feBlend mode="normal" in="SourceGraphic" in2="BackgroundImageFix" result="shape"/>
<feColorMatrix in="SourceAlpha" type="matrix" values="0 0 0 0 0 0 0 0 0 0 0 0 0 0 0 0 0 0 127 0" result="hardAlpha"/>
<feOffset dy="4"/>
<feGaussianBlur stdDeviation="5.5"/>
<feComposite in2="hardAlpha" operator="arithmetic" k2="-1" k3="1"/>
<feColorMatrix type="matrix" values="0 0 0 0 0.943904 0 0 0 0 0.645208 0 0 0 0 0.95 0 0 0 1 0"/>
<feBlend mode="normal" in2="shape" result="effect1_innerShadow_1_23"/>
</filter>
<filter id="filter4_i_1_23" x="8.36359" y="138.468" width="116.016" height="77.4302" filterUnits="userSpaceOnUse" color-interpolation-filters="sRGB">
<feFlood flood-opacity="0" result="BackgroundImageFix"/>
<feBlend mode="normal" in="SourceGraphic" in2="BackgroundImageFix" result="shape"/>
<feColorMatrix in="SourceAlpha" type="matrix" values="0 0 0 0 0 0 0 0 0 0 0 0 0 0 0 0 0 0 127 0" result="hardAlpha"/>
<feOffset dy="4"/>
<feGaussianBlur stdDeviation="5.5"/>
<feComposite in2="hardAlpha" operator="arithmetic" k2="-1" k3="1"/>
<feColorMatrix type="matrix" values="0 0 0 0 0.943904 0 0 0 0 0.645208 0 0 0 0 0.95 0 0 0 1 0"/>
<feBlend mode="normal" in2="shape" result="effect1_innerShadow_1_23"/>
</filter>
<filter id="filter5_i_1_23" x="18.8189" y="48.2111" width="110.681" height="94.2889" filterUnits="userSpaceOnUse" color-interpolation-filters="sRGB">
<feFlood flood-opacity="0" result="BackgroundImageFix"/>
<feBlend mode="normal" in="SourceGraphic" in2="BackgroundImageFix" result="shape"/>
<feColorMatrix in="SourceAlpha" type="matrix" values="0 0 0 0 0 0 0 0 0 0 0 0 0 0 0 0 0 0 127 0" result="hardAlpha"/>
<feOffset dy="4"/>
<feGaussianBlur stdDeviation="5.5"/>
<feComposite in2="hardAlpha" operator="arithmetic" k2="-1" k3="1"/>
<feColorMatrix type="matrix" values="0 0 0 0 0.943904 0 0 0 0 0.645208 0 0 0 0 0.95 0 0 0 1 0"/>
<feBlend mode="normal" in2="shape" result="effect1_innerShadow_1_23"/>
</filter>
<filter id="filter6_i_1_23" x="110.046" y="0.392334" width="64.0486" height="121.084" filterUnits="userSpaceOnUse" color-interpolation-filters="sRGB">
<feFlood flood-opacity="0" result="BackgroundImageFix"/>
<feBlend mode="normal" in="SourceGraphic" in2="BackgroundImageFix" result="shape"/>
<feColorMatrix in="SourceAlpha" type="matrix" values="0 0 0 0 0 0 0 0 0 0 0 0 0 0 0 0 0 0 127 0" result="hardAlpha"/>
<feOffset dy="4"/>
<feGaussianBlur stdDeviation="5.5"/>
<feComposite in2="hardAlpha" operator="arithmetic" k2="-1" k3="1"/>
<feColorMatrix type="matrix" values="0 0 0 0 0.943904 0 0 0 0 0.645208 0 0 0 0 0.95 0 0 0 1 0"/>
<feBlend mode="normal" in2="shape" result="effect1_innerShadow_1_23"/>
</filter>
<radialGradient id="paint0_radial_1_23" cx="0" cy="0" r="1" gradientUnits="userSpaceOnUse" gradientTransform="translate(143 140) rotate(90) scale(33 32)">
<stop stop-color="white"/>
<stop offset="1" stop-color="#FFE500"/>
</radialGradient>
</defs>
</svg>
